<svg xmlns="http://www.w3.org/2000/svg" xmlns:xlink="http://www.w3.org/1999/xlink" width="1080" zoomAndPan="magnify" viewBox="0 0 810 809.999993" height="1080" preserveAspectRatio="xMidYMid meet" version="1.0"><defs><clipPath id="63d35c58dc"><path d="M 477 261.433594 L 603 261.433594 L 603 387 L 477 387 Z M 477 261.433594 " clip-rule="nonzero"/></clipPath><clipPath id="7a2d966423"><path d="M 207.152344 526 L 230 526 L 230 548.683594 L 207.152344 548.683594 Z M 207.152344 526 " clip-rule="nonzero"/></clipPath></defs><g clip-path="url(#63d35c58dc)"><path fill="#554940" d="M 597.960938 262.078125 C 596.574219 262.398438 595.167969 262.820312 594.03125 263.335938 C 590.671875 264.867188 586.769531 267.3125 582.914062 271.167969 L 559.421875 294.652344 C 559.347656 294.628906 552.578125 292.75 542.964844 289.960938 L 545.90625 287.023438 C 546.945312 285.984375 546.945312 284.304688 545.90625 283.265625 L 545.585938 282.945312 C 544.546875 281.910156 542.867188 281.910156 541.832031 282.945312 L 536.667969 288.109375 C 529.28125 285.933594 520.878906 283.441406 512.828125 280.945312 L 516.136719 277.636719 C 517.175781 276.597656 517.175781 274.921875 516.136719 273.882812 L 515.816406 273.5625 C 514.777344 272.523438 513.097656 272.523438 512.0625 273.5625 L 506.625 278.996094 C 498.203125 276.304688 490.566406 273.734375 485.378906 271.660156 C 483.699219 270.992188 479.425781 270.894531 478.710938 272.574219 C 478.164062 273.808594 480.882812 276.03125 482.042969 276.699219 C 493.507812 283.390625 515.890625 296.40625 526.214844 304.457031 C 529.429688 306.976562 537.878906 316.113281 537.902344 316.140625 C 537.902344 316.140625 505.21875 352.617188 504.453125 353.777344 L 483.476562 347.898438 C 481.527344 347.355469 479.449219 347.777344 477.871094 348.960938 C 481.722656 351.753906 493.902344 360.617188 498.226562 363.828125 C 497.929688 364.347656 497.632812 364.867188 497.363281 365.335938 C 496.917969 366.125 496.375 366.792969 496.027344 367.335938 C 495.679688 367.878906 495.535156 368.324219 495.855469 368.644531 C 496.175781 368.964844 496.621094 368.816406 497.164062 368.472656 C 497.707031 368.125 498.375 367.582031 499.164062 367.164062 C 499.660156 366.890625 500.179688 366.59375 500.722656 366.273438 C 503.636719 370.199219 512.085938 382.128906 515.148438 386.453125 C 516.160156 384.945312 516.53125 383.066406 516.0625 381.265625 L 510.652344 360.148438 C 511.839844 359.382812 548.402344 326.683594 548.402344 326.683594 C 548.425781 326.710938 557.566406 335.15625 560.085938 338.367188 C 568.164062 348.691406 581.160156 371.066406 587.855469 382.523438 C 588.546875 383.683594 590.746094 386.402344 591.980469 385.859375 C 593.636719 385.140625 593.5625 380.871094 592.894531 379.191406 C 590.820312 374.003906 588.226562 366.371094 585.53125 357.949219 L 590.96875 352.519531 C 592.003906 351.480469 592.003906 349.800781 590.96875 348.765625 L 590.648438 348.441406 C 589.609375 347.40625 587.929688 347.40625 586.890625 348.441406 L 583.582031 351.753906 C 581.085938 343.699219 578.566406 335.328125 576.417969 327.917969 L 581.582031 322.757812 C 582.617188 321.71875 582.617188 320.042969 581.582031 319.003906 L 581.257812 318.683594 C 580.222656 317.644531 578.542969 317.644531 577.503906 318.683594 L 574.5625 321.621094 C 571.796875 312.015625 569.894531 305.246094 569.871094 305.199219 L 593.363281 281.710938 C 597.167969 277.910156 599.589844 274.03125 601.121094 270.648438 C 601.640625 269.488281 602.0625 268.003906 602.382812 266.574219 C 603.046875 263.855469 600.628906 261.433594 597.960938 262.078125 Z M 597.960938 262.078125 " fill-opacity="1" fill-rule="nonzero"/></g><path fill="#554940" d="M 234.5 535.125 C 232.671875 535.570312 231.636719 535.769531 231.636719 535.769531 C 231.09375 535.890625 230.769531 536.410156 230.871094 536.929688 C 230.96875 537.398438 231.390625 537.71875 231.832031 537.71875 C 231.90625 537.71875 231.980469 537.71875 232.03125 537.695312 C 232.082031 537.695312 233.070312 537.472656 234.945312 537.027344 C 235.464844 536.90625 235.8125 536.363281 235.6875 535.84375 C 235.5625 535.324219 235.046875 535.003906 234.5 535.125 Z M 234.5 535.125 " fill-opacity="1" fill-rule="nonzero"/><path fill="#554940" d="M 256.390625 529.199219 C 254.414062 529.792969 252.414062 530.386719 250.460938 530.929688 C 249.941406 531.078125 249.621094 531.621094 249.769531 532.136719 C 249.894531 532.582031 250.289062 532.855469 250.707031 532.855469 C 250.808594 532.855469 250.882812 532.855469 250.980469 532.804688 C 252.957031 532.238281 254.957031 531.667969 256.933594 531.050781 C 257.453125 530.902344 257.75 530.335938 257.601562 529.816406 C 257.476562 529.347656 256.910156 529.050781 256.390625 529.199219 Z M 256.390625 529.199219 " fill-opacity="1" fill-rule="nonzero"/><path fill="#554940" d="M 245.496094 532.3125 C 243.46875 532.855469 241.46875 533.398438 239.515625 533.890625 C 238.996094 534.015625 238.675781 534.558594 238.800781 535.101562 C 238.925781 535.546875 239.320312 535.84375 239.765625 535.84375 C 239.839844 535.84375 239.9375 535.84375 240.011719 535.820312 C 241.960938 535.324219 243.988281 534.78125 246.015625 534.238281 C 246.53125 534.089844 246.855469 533.546875 246.707031 533.027344 C 246.558594 532.484375 246.015625 532.164062 245.496094 532.3125 Z M 245.496094 532.3125 " fill-opacity="1" fill-rule="nonzero"/><path fill="#554940" d="M 339.175781 492.894531 C 337.496094 493.980469 335.71875 495.09375 333.9375 496.179688 C 333.46875 496.453125 333.320312 497.070312 333.617188 497.539062 C 333.816406 497.835938 334.136719 498.007812 334.457031 498.007812 C 334.628906 498.007812 334.804688 497.957031 334.976562 497.859375 C 336.78125 496.773438 338.558594 495.660156 340.261719 494.550781 C 340.734375 494.253906 340.855469 493.636719 340.558594 493.191406 C 340.261719 492.746094 339.621094 492.597656 339.175781 492.894531 Z M 339.175781 492.894531 " fill-opacity="1" fill-rule="nonzero"/><path fill="#554940" d="M 319.558594 504.230469 C 317.757812 505.167969 315.902344 506.109375 314.050781 506.996094 C 313.558594 507.242188 313.359375 507.835938 313.605469 508.332031 C 313.78125 508.675781 314.125 508.875 314.496094 508.875 C 314.644531 508.875 314.792969 508.847656 314.941406 508.773438 C 316.816406 507.863281 318.671875 506.921875 320.5 505.984375 C 320.992188 505.738281 321.167969 505.144531 320.917969 504.652344 C 320.648438 504.179688 320.054688 503.984375 319.558594 504.230469 Z M 319.558594 504.230469 " fill-opacity="1" fill-rule="nonzero"/><path fill="#554940" d="M 329.515625 498.796875 C 327.761719 499.808594 325.960938 500.824219 324.132812 501.8125 C 323.660156 502.082031 323.464844 502.675781 323.734375 503.144531 C 323.910156 503.464844 324.253906 503.664062 324.601562 503.664062 C 324.75 503.664062 324.921875 503.613281 325.070312 503.539062 C 326.921875 502.550781 328.75 501.515625 330.503906 500.5 C 330.972656 500.230469 331.148438 499.636719 330.875 499.144531 C 330.578125 498.699219 329.984375 498.527344 329.515625 498.796875 Z M 329.515625 498.796875 " fill-opacity="1" fill-rule="nonzero"/><path fill="#554940" d="M 348.464844 486.472656 C 346.859375 487.683594 345.15625 488.871094 343.449219 490.054688 C 343.003906 490.375 342.882812 490.96875 343.203125 491.4375 C 343.402344 491.710938 343.695312 491.859375 344.019531 491.859375 C 344.214844 491.859375 344.414062 491.808594 344.585938 491.683594 C 346.316406 490.5 348.019531 489.265625 349.652344 488.054688 C 350.097656 487.734375 350.167969 487.117188 349.847656 486.671875 C 349.527344 486.226562 348.910156 486.128906 348.464844 486.472656 Z M 348.464844 486.472656 " fill-opacity="1" fill-rule="nonzero"/><path fill="#554940" d="M 365.460938 471.65625 C 364.078125 473.089844 362.597656 474.546875 361.089844 475.976562 C 360.695312 476.347656 360.667969 476.964844 361.039062 477.386719 C 361.238281 477.582031 361.507812 477.707031 361.757812 477.707031 C 362.003906 477.707031 362.25 477.609375 362.421875 477.433594 C 363.957031 476.003906 365.460938 474.519531 366.871094 473.039062 C 367.242188 472.644531 367.242188 472.027344 366.84375 471.632812 C 366.476562 471.261719 365.859375 471.285156 365.460938 471.65625 Z M 365.460938 471.65625 " fill-opacity="1" fill-rule="nonzero"/><path fill="#554940" d="M 357.285156 479.410156 C 355.777344 480.71875 354.171875 482.054688 352.542969 483.335938 C 352.121094 483.683594 352.046875 484.300781 352.394531 484.71875 C 352.589844 484.96875 352.886719 485.089844 353.160156 485.089844 C 353.382812 485.089844 353.578125 485.015625 353.777344 484.867188 C 355.433594 483.558594 357.039062 482.226562 358.59375 480.890625 C 359.015625 480.546875 359.0625 479.90625 358.691406 479.507812 C 358.324219 479.089844 357.703125 479.066406 357.285156 479.410156 Z M 357.285156 479.410156 " fill-opacity="1" fill-rule="nonzero"/><path fill="#554940" d="M 380.925781 453.824219 C 380.484375 453.527344 379.863281 453.628906 379.542969 454.097656 C 378.40625 455.777344 377.222656 457.453125 375.988281 459.109375 C 375.664062 459.554688 375.765625 460.171875 376.183594 460.492188 C 376.355469 460.617188 376.578125 460.691406 376.777344 460.691406 C 377.074219 460.691406 377.371094 460.542969 377.566406 460.296875 C 378.828125 458.617188 380.039062 456.886719 381.175781 455.207031 C 381.519531 454.738281 381.398438 454.121094 380.925781 453.824219 Z M 380.925781 453.824219 " fill-opacity="1" fill-rule="nonzero"/><path fill="#554940" d="M 309.40625 509.21875 C 307.578125 510.085938 305.675781 510.949219 303.773438 511.789062 C 303.28125 512.011719 303.058594 512.601562 303.28125 513.097656 C 303.453125 513.46875 303.800781 513.691406 304.195312 513.691406 C 304.316406 513.691406 304.464844 513.664062 304.589844 513.617188 C 306.492188 512.777344 308.394531 511.886719 310.246094 511.023438 C 310.742188 510.800781 310.964844 510.207031 310.714844 509.714844 C 310.492188 509.21875 309.902344 508.996094 309.40625 509.21875 Z M 309.40625 509.21875 " fill-opacity="1" fill-rule="nonzero"/><path fill="#554940" d="M 267.210938 525.816406 C 265.257812 526.457031 263.28125 527.101562 261.304688 527.691406 C 260.789062 527.867188 260.492188 528.410156 260.664062 528.929688 C 260.789062 529.347656 261.183594 529.621094 261.601562 529.621094 C 261.703125 529.621094 261.800781 529.59375 261.898438 529.570312 C 263.875 528.953125 265.851562 528.308594 267.828125 527.667969 C 268.347656 527.496094 268.617188 526.925781 268.472656 526.433594 C 268.296875 525.914062 267.730469 525.644531 267.210938 525.816406 Z M 267.210938 525.816406 " fill-opacity="1" fill-rule="nonzero"/><path fill="#554940" d="M 277.957031 522.136719 C 276.03125 522.828125 274.054688 523.519531 272.128906 524.1875 C 271.609375 524.359375 271.335938 524.925781 271.507812 525.445312 C 271.65625 525.867188 272.027344 526.113281 272.449219 526.113281 C 272.546875 526.113281 272.671875 526.085938 272.769531 526.0625 C 274.722656 525.394531 276.699219 524.703125 278.648438 524.011719 C 279.167969 523.839844 279.441406 523.273438 279.242188 522.753906 C 279.019531 522.210938 278.453125 521.9375 277.957031 522.136719 Z M 277.957031 522.136719 " fill-opacity="1" fill-rule="nonzero"/><path fill="#554940" d="M 288.582031 518.160156 C 286.703125 518.902344 284.75 519.640625 282.800781 520.359375 C 282.28125 520.554688 282.035156 521.125 282.207031 521.617188 C 282.355469 522.011719 282.726562 522.257812 283.121094 522.257812 C 283.246094 522.257812 283.34375 522.234375 283.464844 522.1875 C 285.417969 521.445312 287.371094 520.703125 289.273438 519.964844 C 289.792969 519.765625 290.039062 519.199219 289.839844 518.679688 C 289.644531 518.210938 289.074219 517.960938 288.582031 518.160156 Z M 288.582031 518.160156 " fill-opacity="1" fill-rule="nonzero"/><path fill="#554940" d="M 299.082031 513.863281 C 297.203125 514.652344 295.277344 515.46875 293.375 516.234375 C 292.878906 516.429688 292.632812 517.023438 292.828125 517.519531 C 292.976562 517.914062 293.347656 518.136719 293.742188 518.136719 C 293.867188 518.136719 293.992188 518.109375 294.113281 518.0625 C 296.042969 517.269531 297.96875 516.480469 299.847656 515.664062 C 300.339844 515.445312 300.585938 514.875 300.363281 514.355469 C 300.140625 513.886719 299.574219 513.640625 299.082031 513.863281 Z M 299.082031 513.863281 " fill-opacity="1" fill-rule="nonzero"/><path fill="#554940" d="M 355.726562 356.097656 C 357.730469 355.925781 359.730469 355.976562 361.683594 356.222656 C 361.730469 356.222656 361.78125 356.222656 361.804688 356.222656 C 362.300781 356.222656 362.71875 355.851562 362.792969 355.359375 C 362.867188 354.816406 362.496094 354.320312 361.953125 354.246094 C 359.855469 353.949219 357.679688 353.902344 355.554688 354.097656 C 355.011719 354.148438 354.617188 354.617188 354.667969 355.160156 C 354.691406 355.753906 355.183594 356.148438 355.726562 356.097656 Z M 355.726562 356.097656 " fill-opacity="1" fill-rule="nonzero"/><path fill="#554940" d="M 344.808594 359.335938 C 344.980469 359.335938 345.15625 359.285156 345.304688 359.1875 C 346.167969 358.667969 347.058594 358.246094 347.945312 357.925781 C 348.886719 357.582031 349.847656 357.257812 350.789062 357.011719 C 351.304688 356.863281 351.628906 356.320312 351.480469 355.800781 C 351.332031 355.285156 350.789062 354.960938 350.269531 355.109375 C 349.253906 355.382812 348.242188 355.703125 347.253906 356.074219 C 346.242188 356.445312 345.253906 356.9375 344.289062 357.507812 C 343.820312 357.777344 343.671875 358.394531 343.945312 358.863281 C 344.140625 359.160156 344.488281 359.335938 344.808594 359.335938 Z M 344.808594 359.335938 " fill-opacity="1" fill-rule="nonzero"/><path fill="#554940" d="M 393.773438 390.527344 C 394.34375 392.476562 394.8125 394.453125 395.15625 396.453125 C 395.230469 396.921875 395.652344 397.269531 396.121094 397.269531 C 396.171875 397.269531 396.246094 397.269531 396.292969 397.242188 C 396.835938 397.144531 397.183594 396.625 397.085938 396.109375 C 396.714844 394.058594 396.246094 391.984375 395.652344 389.984375 C 395.503906 389.464844 394.960938 389.167969 394.417969 389.316406 C 393.921875 389.441406 393.625 390.007812 393.773438 390.527344 Z M 393.773438 390.527344 " fill-opacity="1" fill-rule="nonzero"/><path fill="#554940" d="M 336.53125 367.285156 C 336.679688 367.386719 336.855469 367.410156 337.027344 367.410156 C 337.371094 367.410156 337.695312 367.238281 337.890625 366.917969 C 338.929688 365.164062 340.113281 363.558594 341.5 362.199219 C 341.894531 361.804688 341.867188 361.1875 341.5 360.792969 C 341.128906 360.394531 340.484375 360.421875 340.089844 360.792969 C 338.609375 362.273438 337.296875 364 336.1875 365.902344 C 335.890625 366.421875 336.0625 367.015625 336.53125 367.285156 Z M 336.53125 367.285156 " fill-opacity="1" fill-rule="nonzero"/><path fill="#554940" d="M 392.167969 385.710938 C 392.316406 386.105469 392.6875 386.351562 393.082031 386.351562 C 393.207031 386.351562 393.328125 386.328125 393.429688 386.277344 C 393.945312 386.082031 394.195312 385.511719 393.996094 384.996094 C 393.253906 383.019531 392.390625 381.09375 391.476562 379.238281 C 391.230469 378.746094 390.636719 378.546875 390.140625 378.796875 C 389.648438 379.042969 389.449219 379.636719 389.699219 380.128906 C 390.613281 381.90625 391.425781 383.808594 392.167969 385.710938 Z M 392.167969 385.710938 " fill-opacity="1" fill-rule="nonzero"/><path fill="#554940" d="M 390.289062 434.3125 C 389.523438 436.167969 388.683594 438.042969 387.796875 439.921875 C 387.546875 440.414062 387.769531 441.007812 388.265625 441.230469 C 388.414062 441.304688 388.5625 441.328125 388.683594 441.328125 C 389.054688 441.328125 389.402344 441.128906 389.574219 440.761719 C 390.488281 438.859375 391.351562 436.933594 392.117188 435.03125 C 392.316406 434.535156 392.09375 433.945312 391.574219 433.746094 C 391.054688 433.574219 390.488281 433.796875 390.289062 434.3125 Z M 390.289062 434.3125 " fill-opacity="1" fill-rule="nonzero"/><path fill="#554940" d="M 387.277344 375.660156 C 387.472656 375.957031 387.796875 376.128906 388.117188 376.128906 C 388.289062 376.128906 388.460938 376.078125 388.636719 375.980469 C 389.105469 375.707031 389.253906 375.089844 388.980469 374.621094 C 387.871094 372.792969 386.683594 371.039062 385.449219 369.410156 C 385.128906 368.964844 384.484375 368.890625 384.066406 369.238281 C 383.621094 369.558594 383.546875 370.199219 383.890625 370.621094 C 385.054688 372.203125 386.214844 373.878906 387.277344 375.660156 Z M 387.277344 375.660156 " fill-opacity="1" fill-rule="nonzero"/><path fill="#554940" d="M 395.847656 401.492188 C 395.996094 403.21875 396.070312 405.023438 396.070312 406.777344 C 396.070312 407.046875 396.070312 407.320312 396.070312 407.566406 C 396.070312 408.109375 396.492188 408.554688 397.035156 408.578125 C 397.035156 408.578125 397.035156 408.578125 397.058594 408.578125 C 397.601562 408.578125 398.046875 408.136719 398.046875 407.617188 C 398.046875 407.34375 398.046875 407.074219 398.046875 406.800781 C 398.046875 404.972656 397.972656 403.144531 397.800781 401.34375 C 397.75 400.800781 397.28125 400.40625 396.738281 400.453125 C 396.195312 400.453125 395.800781 400.949219 395.847656 401.492188 Z M 395.847656 401.492188 " fill-opacity="1" fill-rule="nonzero"/><path fill="#554940" d="M 386.78125 444.070312 C 386.3125 443.796875 385.695312 443.996094 385.449219 444.464844 C 384.484375 446.21875 383.449219 448.019531 382.359375 449.773438 C 382.0625 450.242188 382.210938 450.835938 382.679688 451.132812 C 382.855469 451.230469 383.027344 451.28125 383.199219 451.28125 C 383.519531 451.28125 383.867188 451.109375 384.039062 450.8125 C 385.152344 449.007812 386.214844 447.207031 387.175781 445.402344 C 387.425781 444.933594 387.25 444.339844 386.78125 444.070312 Z M 386.78125 444.070312 " fill-opacity="1" fill-rule="nonzero"/><path fill="#554940" d="M 333.566406 378.179688 C 333.59375 378.179688 333.617188 378.179688 333.640625 378.179688 C 334.160156 378.179688 334.582031 377.78125 334.628906 377.265625 C 334.753906 375.363281 335.148438 373.410156 335.816406 371.460938 C 335.988281 370.941406 335.71875 370.375 335.199219 370.199219 C 334.679688 370.027344 334.113281 370.300781 333.9375 370.816406 C 333.222656 372.917969 332.777344 375.042969 332.628906 377.117188 C 332.605469 377.660156 333.023438 378.128906 333.566406 378.179688 Z M 333.566406 378.179688 " fill-opacity="1" fill-rule="nonzero"/><path fill="#554940" d="M 366.523438 357.382812 C 368.378906 358 370.207031 358.839844 371.984375 359.851562 C 372.132812 359.953125 372.304688 359.976562 372.476562 359.976562 C 372.824219 359.976562 373.144531 359.804688 373.34375 359.480469 C 373.613281 359.011719 373.441406 358.394531 372.972656 358.125 C 371.09375 357.039062 369.117188 356.148438 367.167969 355.480469 C 366.648438 355.308594 366.078125 355.582031 365.90625 356.097656 C 365.710938 356.640625 366.003906 357.210938 366.523438 357.382812 Z M 366.523438 357.382812 " fill-opacity="1" fill-rule="nonzero"/><path fill="#554940" d="M 382.015625 365.410156 C 380.53125 363.828125 378.949219 362.398438 377.34375 361.136719 C 376.925781 360.792969 376.308594 360.867188 375.960938 361.308594 C 375.617188 361.730469 375.691406 362.371094 376.132812 362.691406 C 377.667969 363.902344 379.171875 365.285156 380.582031 366.792969 C 380.777344 366.988281 381.027344 367.113281 381.296875 367.113281 C 381.546875 367.113281 381.792969 367.015625 381.964844 366.84375 C 382.359375 366.421875 382.386719 365.804688 382.015625 365.410156 Z M 382.015625 365.410156 " fill-opacity="1" fill-rule="nonzero"/><path fill="#554940" d="M 396.863281 411.742188 C 396.320312 411.691406 395.824219 412.085938 395.773438 412.628906 C 395.578125 414.628906 395.304688 416.65625 394.933594 418.679688 C 394.835938 419.222656 395.183594 419.742188 395.726562 419.839844 C 395.773438 419.839844 395.847656 419.867188 395.898438 419.867188 C 396.367188 419.867188 396.789062 419.546875 396.863281 419.050781 C 397.257812 416.976562 397.554688 414.878906 397.726562 412.828125 C 397.824219 412.285156 397.40625 411.816406 396.863281 411.742188 Z M 396.863281 411.742188 " fill-opacity="1" fill-rule="nonzero"/><path fill="#554940" d="M 395.035156 422.953125 C 394.515625 422.804688 393.972656 423.125 393.824219 423.667969 C 393.328125 425.597656 392.734375 427.570312 392.070312 429.523438 C 391.894531 430.042969 392.167969 430.609375 392.6875 430.78125 C 392.785156 430.808594 392.910156 430.832031 393.007812 430.832031 C 393.429688 430.832031 393.796875 430.585938 393.945312 430.164062 C 394.636719 428.164062 395.230469 426.140625 395.75 424.164062 C 395.898438 423.621094 395.578125 423.101562 395.035156 422.953125 Z M 395.035156 422.953125 " fill-opacity="1" fill-rule="nonzero"/><path fill="#554940" d="M 334.0625 385.539062 C 334.234375 385.882812 334.582031 386.054688 334.925781 386.054688 C 335.074219 386.054688 335.222656 386.03125 335.371094 385.957031 C 335.839844 385.710938 336.0625 385.140625 335.816406 384.648438 C 335.445312 383.832031 335.148438 382.96875 334.925781 382.054688 C 334.804688 381.511719 334.285156 381.191406 333.742188 381.3125 C 333.519531 381.363281 333.320312 381.488281 333.199219 381.660156 C 332.976562 381.660156 332.777344 381.757812 332.605469 381.882812 C 332.183594 382.226562 332.136719 382.871094 332.480469 383.265625 C 333.125 383.980469 333.667969 384.746094 334.0625 385.539062 Z M 334.0625 385.539062 " fill-opacity="1" fill-rule="nonzero"/><path fill="#554940" d="M 312.71875 376.820312 C 312.765625 376.820312 312.816406 376.820312 312.890625 376.792969 C 314.71875 376.5 316.746094 376.449219 318.746094 376.648438 C 319.289062 376.695312 319.78125 376.300781 319.832031 375.757812 C 319.882812 375.214844 319.488281 374.71875 318.941406 374.671875 C 316.746094 374.449219 314.570312 374.496094 312.542969 374.820312 C 312 374.917969 311.628906 375.410156 311.730469 375.957031 C 311.828125 376.472656 312.246094 376.820312 312.71875 376.820312 Z M 312.71875 376.820312 " fill-opacity="1" fill-rule="nonzero"/><path fill="#554940" d="M 323.539062 377.660156 C 325.488281 378.277344 327.269531 379.089844 328.875 380.128906 C 329.046875 380.226562 329.21875 380.277344 329.417969 380.277344 C 329.738281 380.277344 330.058594 380.128906 330.257812 379.832031 C 330.554688 379.363281 330.429688 378.769531 329.960938 378.472656 C 328.230469 377.363281 326.28125 376.449219 324.15625 375.78125 C 323.636719 375.609375 323.070312 375.90625 322.921875 376.425781 C 322.746094 376.941406 323.019531 377.511719 323.539062 377.660156 Z M 323.539062 377.660156 " fill-opacity="1" fill-rule="nonzero"/><path fill="#554940" d="M 315.507812 449.007812 C 315.683594 449.132812 315.878906 449.207031 316.078125 449.207031 C 316.375 449.207031 316.695312 449.058594 316.890625 448.785156 C 317.214844 448.34375 317.113281 447.722656 316.671875 447.402344 C 315.015625 446.21875 313.410156 444.957031 311.925781 443.648438 C 311.507812 443.304688 310.890625 443.328125 310.542969 443.75 C 310.199219 444.167969 310.222656 444.785156 310.640625 445.132812 C 312.148438 446.488281 313.804688 447.773438 315.507812 449.007812 Z M 315.507812 449.007812 " fill-opacity="1" fill-rule="nonzero"/><path fill="#554940" d="M 329.417969 455.898438 C 329.195312 456.394531 329.417969 456.984375 329.910156 457.207031 C 331.765625 458.046875 333.714844 458.8125 335.667969 459.554688 C 335.792969 459.605469 335.890625 459.605469 336.015625 459.605469 C 336.410156 459.605469 336.804688 459.355469 336.953125 458.960938 C 337.148438 458.441406 336.878906 457.875 336.359375 457.703125 C 334.433594 456.984375 332.554688 456.21875 330.726562 455.40625 C 330.207031 455.15625 329.640625 455.378906 329.417969 455.898438 Z M 329.417969 455.898438 " fill-opacity="1" fill-rule="nonzero"/><path fill="#554940" d="M 292.335938 400.972656 C 292.386719 400.972656 292.410156 400.972656 292.460938 400.972656 C 292.953125 400.972656 293.375 400.601562 293.449219 400.109375 C 293.71875 398.109375 294.140625 396.132812 294.707031 394.28125 C 294.878906 393.761719 294.582031 393.195312 294.066406 393.046875 C 293.546875 392.871094 292.976562 393.167969 292.828125 393.6875 C 292.210938 395.664062 291.765625 397.738281 291.496094 399.863281 C 291.421875 400.429688 291.816406 400.921875 292.335938 400.972656 Z M 292.335938 400.972656 " fill-opacity="1" fill-rule="nonzero"/><path fill="#554940" d="M 341.152344 459.308594 C 340.632812 459.132812 340.066406 459.429688 339.917969 459.949219 C 339.746094 460.46875 340.039062 461.035156 340.558594 461.183594 C 342.511719 461.800781 344.539062 462.34375 346.539062 462.863281 C 346.613281 462.886719 346.6875 462.886719 346.785156 462.886719 C 347.230469 462.886719 347.625 462.59375 347.75 462.148438 C 347.871094 461.628906 347.550781 461.085938 347.03125 460.960938 C 345.054688 460.46875 343.078125 459.898438 341.152344 459.308594 Z M 341.152344 459.308594 " fill-opacity="1" fill-rule="nonzero"/><path fill="#554940" d="M 361.953125 464.519531 C 361.90625 465.0625 362.300781 465.53125 362.84375 465.582031 C 364.917969 465.777344 366.992188 465.902344 369.042969 465.949219 C 369.042969 465.949219 369.070312 465.949219 369.070312 465.949219 C 369.613281 465.949219 370.03125 465.53125 370.058594 464.988281 C 370.082031 464.445312 369.636719 463.976562 369.09375 463.976562 C 367.09375 463.925781 365.042969 463.800781 363.015625 463.605469 C 362.496094 463.578125 362.003906 463.976562 361.953125 464.519531 Z M 361.953125 464.519531 " fill-opacity="1" fill-rule="nonzero"/><path fill="#554940" d="M 295.226562 390.132812 C 295.375 390.207031 295.523438 390.230469 295.671875 390.230469 C 296.042969 390.230469 296.386719 390.03125 296.558594 389.6875 C 297.449219 387.859375 298.535156 386.179688 299.746094 384.699219 C 300.09375 384.277344 300.019531 383.660156 299.597656 383.316406 C 299.179688 382.96875 298.5625 383.042969 298.214844 383.464844 C 296.90625 385.066406 295.769531 386.871094 294.804688 388.820312 C 294.535156 389.316406 294.730469 389.882812 295.226562 390.132812 Z M 295.226562 390.132812 " fill-opacity="1" fill-rule="nonzero"/><path fill="#554940" d="M 319.511719 450.515625 C 319.214844 450.984375 319.363281 451.578125 319.832031 451.875 C 321.5625 452.933594 323.390625 453.972656 325.242188 454.9375 C 325.390625 455.011719 325.539062 455.035156 325.6875 455.035156 C 326.035156 455.035156 326.378906 454.835938 326.578125 454.492188 C 326.824219 453.996094 326.625 453.40625 326.15625 453.15625 C 324.328125 452.21875 322.574219 451.207031 320.871094 450.167969 C 320.402344 449.921875 319.78125 450.070312 319.511719 450.515625 Z M 319.511719 450.515625 " fill-opacity="1" fill-rule="nonzero"/><path fill="#554940" d="M 307.527344 441.894531 C 307.777344 441.894531 308.023438 441.796875 308.222656 441.625 C 308.617188 441.253906 308.617188 440.613281 308.246094 440.214844 C 306.8125 438.757812 305.480469 437.253906 304.242188 435.695312 C 303.898438 435.277344 303.28125 435.203125 302.859375 435.523438 C 302.441406 435.871094 302.367188 436.488281 302.6875 436.90625 C 303.945312 438.511719 305.355469 440.09375 306.8125 441.597656 C 307.035156 441.796875 307.28125 441.894531 307.527344 441.894531 Z M 307.527344 441.894531 " fill-opacity="1" fill-rule="nonzero"/><path fill="#554940" d="M 459.019531 426.140625 C 457.660156 427.621094 456.226562 429.101562 454.792969 430.535156 C 454.398438 430.90625 454.398438 431.546875 454.792969 431.941406 C 454.992188 432.140625 455.238281 432.238281 455.488281 432.238281 C 455.734375 432.238281 455.980469 432.140625 456.179688 431.941406 C 457.636719 430.511719 459.09375 429.003906 460.476562 427.472656 C 460.847656 427.078125 460.824219 426.4375 460.402344 426.066406 C 460.03125 425.695312 459.390625 425.71875 459.019531 426.140625 Z M 459.019531 426.140625 " fill-opacity="1" fill-rule="nonzero"/><path fill="#554940" d="M 412.945312 456.738281 C 411.042969 457.429688 409.089844 458.097656 407.164062 458.691406 C 406.644531 458.863281 406.347656 459.40625 406.523438 459.925781 C 406.644531 460.34375 407.039062 460.617188 407.460938 460.617188 C 407.558594 460.617188 407.65625 460.589844 407.757812 460.566406 C 409.707031 459.949219 411.683594 459.28125 413.636719 458.589844 C 414.15625 458.394531 414.402344 457.824219 414.230469 457.332031 C 414.03125 456.8125 413.464844 456.542969 412.945312 456.738281 Z M 412.945312 456.738281 " fill-opacity="1" fill-rule="nonzero"/><path fill="#554940" d="M 451.113281 433.992188 C 449.605469 435.351562 448.050781 436.683594 446.46875 437.945312 C 446.050781 438.289062 445.976562 438.90625 446.320312 439.328125 C 446.519531 439.574219 446.789062 439.699219 447.085938 439.699219 C 447.308594 439.699219 447.53125 439.625 447.703125 439.476562 C 449.285156 438.191406 450.890625 436.832031 452.421875 435.449219 C 452.820312 435.078125 452.867188 434.460938 452.496094 434.066406 C 452.125 433.671875 451.507812 433.648438 451.113281 433.992188 Z M 451.113281 433.992188 " fill-opacity="1" fill-rule="nonzero"/><path fill="#554940" d="M 423.246094 452.417969 C 421.417969 453.28125 419.542969 454.121094 417.664062 454.886719 C 417.167969 455.085938 416.921875 455.675781 417.121094 456.171875 C 417.269531 456.542969 417.640625 456.789062 418.035156 456.789062 C 418.15625 456.789062 418.28125 456.761719 418.40625 456.714844 C 420.308594 455.921875 422.210938 455.085938 424.0625 454.195312 C 424.554688 453.972656 424.777344 453.378906 424.53125 452.886719 C 424.332031 452.390625 423.742188 452.195312 423.246094 452.417969 Z M 423.246094 452.417969 " fill-opacity="1" fill-rule="nonzero"/><path fill="#554940" d="M 433.128906 447.179688 C 431.398438 448.21875 429.597656 449.207031 427.816406 450.144531 C 427.324219 450.390625 427.148438 450.984375 427.398438 451.476562 C 427.570312 451.824219 427.917969 451.996094 428.261719 451.996094 C 428.410156 451.996094 428.582031 451.972656 428.730469 451.875 C 430.558594 450.910156 432.363281 449.898438 434.140625 448.859375 C 434.609375 448.589844 434.757812 447.972656 434.488281 447.503906 C 434.191406 447.058594 433.597656 446.910156 433.128906 447.179688 Z M 433.128906 447.179688 " fill-opacity="1" fill-rule="nonzero"/><path fill="#554940" d="M 442.441406 441.03125 C 440.8125 442.21875 439.132812 443.378906 437.425781 444.488281 C 436.984375 444.785156 436.835938 445.402344 437.132812 445.847656 C 437.328125 446.144531 437.625 446.292969 437.972656 446.292969 C 438.144531 446.292969 438.339844 446.242188 438.515625 446.117188 C 440.242188 444.984375 441.949219 443.796875 443.605469 442.585938 C 444.046875 442.265625 444.148438 441.648438 443.824219 441.203125 C 443.503906 440.808594 442.886719 440.710938 442.441406 441.03125 Z M 442.441406 441.03125 " fill-opacity="1" fill-rule="nonzero"/><path fill="#554940" d="M 483.550781 387.636719 C 483.058594 387.390625 482.464844 387.613281 482.242188 388.105469 C 481.351562 389.957031 480.464844 391.835938 479.625 393.664062 C 479.402344 394.15625 479.597656 394.75 480.09375 394.972656 C 480.214844 395.046875 480.363281 395.070312 480.511719 395.070312 C 480.882812 395.070312 481.230469 394.847656 481.402344 394.503906 C 482.242188 392.675781 483.132812 390.796875 484.019531 388.945312 C 484.269531 388.476562 484.046875 387.882812 483.550781 387.636719 Z M 483.550781 387.636719 " fill-opacity="1" fill-rule="nonzero"/><path fill="#554940" d="M 478.757812 397.835938 C 478.265625 397.589844 477.671875 397.8125 477.449219 398.304688 C 476.4375 400.429688 475.570312 402.183594 474.730469 403.789062 C 474.484375 404.28125 474.65625 404.875 475.152344 405.121094 C 475.300781 405.195312 475.449219 405.222656 475.597656 405.222656 C 475.941406 405.222656 476.289062 405.023438 476.484375 404.675781 C 477.324219 403.046875 478.191406 401.292969 479.226562 399.144531 C 479.449219 398.652344 479.253906 398.058594 478.757812 397.835938 Z M 478.757812 397.835938 " fill-opacity="1" fill-rule="nonzero"/><path fill="#554940" d="M 473.644531 407.863281 C 473.175781 407.59375 472.558594 407.738281 472.285156 408.234375 C 471.941406 408.828125 471.59375 409.394531 471.25 409.960938 C 470.554688 411.097656 469.816406 412.257812 469.050781 413.394531 C 468.753906 413.839844 468.875 414.457031 469.320312 414.753906 C 469.496094 414.878906 469.691406 414.925781 469.863281 414.925781 C 470.1875 414.925781 470.507812 414.777344 470.679688 414.480469 C 471.445312 413.320312 472.210938 412.160156 472.929688 411 C 473.273438 410.433594 473.644531 409.839844 473.992188 409.222656 C 474.261719 408.753906 474.113281 408.136719 473.644531 407.863281 Z M 473.644531 407.863281 " fill-opacity="1" fill-rule="nonzero"/><path fill="#554940" d="M 467.519531 417.324219 C 467.074219 417 466.457031 417.101562 466.132812 417.519531 C 464.949219 419.125 463.664062 420.730469 462.355469 422.3125 C 462.007812 422.730469 462.058594 423.347656 462.476562 423.695312 C 462.652344 423.84375 462.898438 423.917969 463.121094 423.917969 C 463.390625 423.917969 463.6875 423.792969 463.886719 423.570312 C 465.21875 421.988281 466.503906 420.335938 467.714844 418.707031 C 468.035156 418.261719 467.960938 417.644531 467.519531 417.324219 Z M 467.519531 417.324219 " fill-opacity="1" fill-rule="nonzero"/><path fill="#554940" d="M 488.914062 377.734375 C 488.441406 377.460938 487.824219 377.609375 487.554688 378.078125 C 486.566406 379.734375 485.578125 381.511719 484.539062 383.511719 C 484.292969 384.007812 484.464844 384.597656 484.960938 384.847656 C 485.109375 384.921875 485.257812 384.945312 485.402344 384.945312 C 485.75 384.945312 486.097656 384.746094 486.292969 384.402344 C 487.304688 382.425781 488.269531 380.695312 489.234375 379.066406 C 489.53125 378.621094 489.382812 378.003906 488.914062 377.734375 Z M 488.914062 377.734375 " fill-opacity="1" fill-rule="nonzero"/><path fill="#554940" d="M 295.449219 423.101562 C 295.570312 423.101562 295.671875 423.078125 295.792969 423.027344 C 296.3125 422.828125 296.558594 422.261719 296.363281 421.769531 C 295.671875 419.914062 295.078125 417.964844 294.582031 416.011719 C 294.460938 415.496094 293.917969 415.148438 293.398438 415.296875 C 292.878906 415.421875 292.535156 415.964844 292.683594 416.484375 C 293.175781 418.507812 293.792969 420.507812 294.511719 422.460938 C 294.65625 422.855469 295.054688 423.101562 295.449219 423.101562 Z M 295.449219 423.101562 " fill-opacity="1" fill-rule="nonzero"/><path fill="#554940" d="M 298.363281 426.363281 C 298.117188 425.867188 297.523438 425.671875 297.03125 425.917969 C 296.535156 426.164062 296.339844 426.757812 296.585938 427.25 C 297.5 429.101562 298.535156 430.929688 299.671875 432.683594 C 299.871094 432.980469 300.191406 433.128906 300.511719 433.128906 C 300.6875 433.128906 300.882812 433.078125 301.054688 432.980469 C 301.527344 432.683594 301.648438 432.066406 301.351562 431.621094 C 300.242188 429.917969 299.226562 428.140625 298.363281 426.363281 Z M 298.363281 426.363281 " fill-opacity="1" fill-rule="nonzero"/><path fill="#554940" d="M 402.273438 460.074219 C 400.320312 460.589844 398.320312 461.0625 396.34375 461.480469 C 395.800781 461.605469 395.480469 462.121094 395.578125 462.640625 C 395.675781 463.109375 396.097656 463.429688 396.539062 463.429688 C 396.613281 463.429688 396.6875 463.429688 396.738281 463.40625 C 398.738281 462.988281 400.765625 462.492188 402.765625 461.972656 C 403.285156 461.828125 403.605469 461.28125 403.457031 460.765625 C 403.359375 460.246094 402.816406 459.949219 402.273438 460.074219 Z M 402.273438 460.074219 " fill-opacity="1" fill-rule="nonzero"/><path fill="#554940" d="M 292.804688 412.210938 C 293.347656 412.136719 293.71875 411.617188 293.644531 411.097656 C 293.523438 410.308594 293.421875 409.492188 293.347656 408.703125 C 293.226562 407.519531 293.152344 406.332031 293.152344 405.121094 C 293.152344 404.578125 292.707031 404.132812 292.164062 404.132812 C 291.621094 404.132812 291.175781 404.578125 291.175781 405.121094 C 291.175781 406.382812 291.25 407.640625 291.371094 408.875 C 291.445312 409.714844 291.570312 410.554688 291.695312 411.371094 C 291.765625 411.863281 292.1875 412.210938 292.683594 412.210938 C 292.707031 412.210938 292.753906 412.210938 292.804688 412.210938 Z M 292.804688 412.210938 " fill-opacity="1" fill-rule="nonzero"/><path fill="#554940" d="M 303.179688 381.242188 C 304.714844 380.003906 306.394531 378.992188 308.195312 378.203125 C 308.691406 377.980469 308.9375 377.414062 308.714844 376.894531 C 308.492188 376.398438 307.925781 376.152344 307.40625 376.375 C 305.453125 377.214844 303.601562 378.324219 301.945312 379.683594 C 301.527344 380.03125 301.453125 380.648438 301.796875 381.066406 C 301.996094 381.3125 302.265625 381.4375 302.5625 381.4375 C 302.785156 381.460938 303.007812 381.386719 303.179688 381.242188 Z M 303.179688 381.242188 " fill-opacity="1" fill-rule="nonzero"/><path fill="#554940" d="M 357.851562 465.011719 C 358.347656 465.011719 358.765625 464.640625 358.839844 464.148438 C 358.914062 463.605469 358.542969 463.109375 358 463.035156 C 356 462.765625 353.972656 462.417969 351.996094 462.023438 C 351.453125 461.925781 350.9375 462.269531 350.835938 462.789062 C 350.738281 463.332031 351.082031 463.851562 351.601562 463.949219 C 353.628906 464.34375 355.679688 464.691406 357.730469 464.988281 C 357.753906 465.011719 357.804688 465.011719 357.851562 465.011719 Z M 357.851562 465.011719 " fill-opacity="1" fill-rule="nonzero"/><path fill="#554940" d="M 391.351562 462.445312 C 389.351562 462.789062 387.324219 463.0625 385.324219 463.285156 C 384.78125 463.359375 384.386719 463.828125 384.460938 464.371094 C 384.507812 464.863281 384.953125 465.234375 385.449219 465.234375 C 385.496094 465.234375 385.523438 465.234375 385.570312 465.234375 C 387.621094 465.011719 389.671875 464.714844 391.699219 464.371094 C 392.242188 464.269531 392.589844 463.777344 392.515625 463.234375 C 392.414062 462.714844 391.894531 462.34375 391.351562 462.445312 Z M 391.351562 462.445312 " fill-opacity="1" fill-rule="nonzero"/><path fill="#554940" d="M 380.261719 463.753906 C 378.382812 463.875 376.480469 463.976562 374.601562 464 C 374.675781 463.628906 374.578125 463.234375 374.257812 462.988281 C 373.835938 462.640625 373.21875 462.714844 372.875 463.136719 C 371.710938 464.59375 370.5 466.050781 369.265625 467.457031 C 369.144531 467.582031 369.042969 467.730469 368.921875 467.851562 C 368.550781 468.273438 368.601562 468.890625 369.019531 469.234375 C 369.21875 469.410156 369.441406 469.480469 369.660156 469.480469 C 369.933594 469.480469 370.207031 469.359375 370.402344 469.136719 C 370.527344 469.011719 370.625 468.863281 370.75 468.742188 C 371.664062 467.703125 372.550781 466.640625 373.417969 465.582031 C 373.589844 465.800781 373.886719 465.949219 374.183594 465.949219 C 374.183594 465.949219 374.183594 465.949219 374.207031 465.949219 C 376.257812 465.925781 378.332031 465.828125 380.410156 465.679688 C 380.953125 465.628906 381.371094 465.160156 381.324219 464.617188 C 381.273438 464.125 380.804688 463.726562 380.261719 463.753906 Z M 380.261719 463.753906 " fill-opacity="1" fill-rule="nonzero"/><path fill="#554940" d="M 493.605469 371.089844 C 493.1875 370.742188 492.570312 370.816406 492.222656 371.261719 C 491.605469 372.027344 491.011719 372.84375 490.417969 373.683594 C 490.097656 374.128906 490.222656 374.746094 490.667969 375.066406 C 490.839844 375.191406 491.035156 375.238281 491.234375 375.238281 C 491.554688 375.238281 491.851562 375.089844 492.050781 374.820312 C 492.617188 374.003906 493.210938 373.214844 493.777344 372.496094 C 494.101562 372.054688 494.027344 371.410156 493.605469 371.089844 Z M 493.605469 371.089844 " fill-opacity="1" fill-rule="nonzero"/><path fill="#554940" d="M 223.1875 537.570312 C 223.1875 537.886719 223.15625 538.203125 223.09375 538.511719 C 223.03125 538.820312 222.941406 539.121094 222.820312 539.414062 C 222.699219 539.707031 222.550781 539.984375 222.375 540.246094 C 222.199219 540.511719 222 540.753906 221.777344 540.976562 C 221.550781 541.199219 221.308594 541.398438 221.046875 541.574219 C 220.78125 541.75 220.503906 541.898438 220.214844 542.019531 C 219.921875 542.140625 219.621094 542.234375 219.308594 542.296875 C 219 542.355469 218.6875 542.386719 218.371094 542.386719 C 218.054688 542.386719 217.738281 542.355469 217.429688 542.296875 C 217.121094 542.234375 216.816406 542.140625 216.527344 542.019531 C 216.234375 541.898438 215.957031 541.75 215.691406 541.574219 C 215.429688 541.398438 215.1875 541.199219 214.964844 540.976562 C 214.738281 540.753906 214.539062 540.511719 214.363281 540.246094 C 214.1875 539.984375 214.039062 539.707031 213.917969 539.414062 C 213.796875 539.121094 213.707031 538.820312 213.644531 538.511719 C 213.582031 538.203125 213.550781 537.886719 213.550781 537.570312 C 213.550781 537.253906 213.582031 536.941406 213.644531 536.632812 C 213.707031 536.320312 213.796875 536.019531 213.917969 535.730469 C 214.039062 535.4375 214.1875 535.160156 214.363281 534.894531 C 214.539062 534.632812 214.738281 534.390625 214.964844 534.167969 C 215.1875 533.941406 215.429688 533.742188 215.691406 533.566406 C 215.957031 533.390625 216.234375 533.242188 216.527344 533.121094 C 216.816406 533 217.121094 532.910156 217.429688 532.847656 C 217.738281 532.785156 218.054688 532.757812 218.371094 532.757812 C 218.6875 532.757812 219 532.785156 219.308594 532.847656 C 219.621094 532.910156 219.921875 533 220.214844 533.121094 C 220.503906 533.242188 220.78125 533.390625 221.046875 533.566406 C 221.308594 533.742188 221.550781 533.941406 221.777344 534.167969 C 222 534.390625 222.199219 534.632812 222.375 534.894531 C 222.550781 535.160156 222.699219 535.4375 222.820312 535.730469 C 222.941406 536.019531 223.03125 536.320312 223.09375 536.632812 C 223.15625 536.941406 223.1875 537.253906 223.1875 537.570312 Z M 223.1875 537.570312 " fill-opacity="1" fill-rule="nonzero"/><g clip-path="url(#7a2d966423)"><path fill="#554940" d="M 218.371094 526.457031 C 212.242188 526.457031 207.253906 531.445312 207.253906 537.570312 C 207.253906 543.695312 212.242188 548.683594 218.371094 548.683594 C 224.496094 548.683594 229.488281 543.695312 229.488281 537.570312 C 229.488281 531.445312 224.496094 526.457031 218.371094 526.457031 Z M 218.371094 545.695312 C 213.875 545.695312 210.21875 542.042969 210.21875 537.546875 C 210.21875 533.050781 213.875 529.398438 218.371094 529.398438 C 222.867188 529.398438 226.523438 533.050781 226.523438 537.546875 C 226.523438 542.042969 222.839844 545.695312 218.371094 545.695312 Z M 218.371094 545.695312 " fill-opacity="1" fill-rule="nonzero"/></g></svg>